# xmcd
#
# Track frame offsets:
#	150
#	9713
#	18278
#	36723
#	45364
#	59312
#	68830
#	78965
#	93609
#	103087
#	122621
#	138683
#	155829
#
# Disc length: 2189 seconds
#
# Revision: 0
# Processed by: cddbd v1.5.2PL0 Copyright (c) Steve Scherf et al.
# Submitted via: EZCDAudioConverter 2.1.5.1
#
DISCID=b1088b0d
DTITLE=Charley Pride - Christmas in My Hometown
DYEAR=2013
DGENRE=Country
TTITLE0=Christmas In My Home Town
TTITLE1=Deck The Halls (With Boughs Of Holly)
TTITLE2=They Stood In Silent Prayer
TTITLE3=Santa And The Kids
TTITLE4=Silent Night
TTITLE5=Little Drummer Boy
TTITLE6=Happy Christmas Day
TTITLE7=The First Christmas Morn
TTITLE8=Christmas And Love
TTITLE9=O Holy Night
TTITLE10=Out of the East
TTITLE11=Christmas Without Mary
TTITLE12=Let It Snow, Let It Snow, Let It Snow
EXTD=
EXTT0=
EXTT1=
EXTT2=
EXTT3=
EXTT4=
EXTT5=
EXTT6=
EXTT7=
EXTT8=
EXTT9=
EXTT10=
EXTT11=
EXTT12=
PLAYORDER=
